nColumns=19
nRows=83
DataType=double
version=3
OpenSimVersion=4.1
endheader
time	ground_force_1_vx	ground_force_1_vy	ground_force_1_vz	ground_force_1_px	ground_force_1_py	ground_force_1_pz	ground_force_1_mx	ground_force_1_my	ground_force_1_mz	ground_force_2_vx	ground_force_2_vy	ground_force_2_vz	ground_force_2_px	ground_force_2_py	ground_force_2_pz	ground_force_2_mx	ground_force_2_my	ground_force_2_mz
0.03	0	0	0	-0.00273373	0	0.00069489	0	0	0	121.887	103.478	-20.4382	0.489582	0	-0.353366	-0	4.42705	-0
0.04	0	0	0	-0.00273373	0	0.000694889	0	0	0	60.7568	57.4385	-11.9589	0.43728	0	-0.339046	-0	1.36664	-0
0.05	0	0	0	-0.00273373	0	0.000694887	0	0	0	0	0	0	-0.00273373	0	0.000694887	0	0	0
0.06	0	0	0	-0.00273373	0	0.000694884	0	0	0	0	0	0	-0.00273373	0	0.000694884	0	0	0
0.07	0	0	0	-0.00273373	0	0.000694879	0	0	0	0	0	0	-0.00273373	0	0.00069488	0	0	0
0.08	0	0	0	-0.00273373	0	0.000694874	0	0	0	0	0	0	-0.00273373	0	0.000694874	0	0	0
0.09	0	0	0	-0.00273373	0	0.000694867	0	0	0	0	0	0	-0.00273373	0	0.000694867	0	0	0
0.1	0	0	0	-0.00273373	0	0.000694859	0	0	0	0	0	0	-0.00273373	0	0.000694859	0	0	0
0.11	0	0	0	-0.00273373	0	0.000694849	0	0	0	0	0	0	-0.00273373	0	0.00069485	0	0	0
0.12	0	0	0	-0.00273374	0	0.000694839	0	0	0	0	0	0	-0.00273374	0	0.000694839	0	0	0
0.13	-18.9432	69.2068	-1.41039	1.50771	0	0.176421	0	-0.675357	0	0	0	0	-0.00273374	0	0.000694827	0	0	0
0.14	-37.1781	205.258	-11.6635	0.903869	0	-0.230013	-0	0.678569	-0	0	0	0	-0.00273374	0	0.000694814	0	0	0
0.15	-57.4623	476.297	-26.5652	0.882654	0	-0.236813	-0	1.39247	-0	0	0	0	-0.00273374	0	0.0006948	0	0	0
0.16	-89.6314	828.798	-29.3445	0.870702	0	-0.237868	-0	1.4304	-0	0	0	0	-0.00273375	0	0.000694784	0	0	0
0.17	-150.243	1103.81	-15.0718	0.860053	0	-0.237155	-0	0.725666	-0	0	0	0	-0.00273375	0	0.000694767	0	0	0
0.18	-223.419	1236.26	-9.98205	0.84599	0	-0.235357	0	-0.522978	0	0	0	0	-0.00273375	0	0.000694749	0	0	0
0.19	-266.662	1321.55	-38.3962	0.823699	0	-0.232705	0	-1.89315	0	0	0	0	-0.00273376	0	0.00069473	0	0	0
0.2	-252.688	1430.35	-69.1093	0.791063	0	-0.229498	0	-3.03988	0	0	0	0	-0.00273376	0	0.000694709	0	0	0
0.21	-202.208	1542.43	-71.4386	0.750882	0	-0.226245	0	-3.75615	0	0	0	0	-0.00273377	0	0.000694688	0	0	0
0.22	-138.07	1614.73	-73.7547	0.707923	0	-0.223468	0	-3.84955	0	0	0	0	-0.00273377	0	0.000694665	0	0	0
0.23	-64.1483	1634.74	-94.1647	0.664845	0	-0.22142	0	-3.30786	0	0	0	0	-0.00273378	0	0.000694641	0	0	0
0.24	14.6263	1606.63	-102.125	0.621896	0	-0.220133	0	-2.64143	0	0	0	0	-0.00273378	0	0.000694615	0	0	0
0.25	92.5984	1530.1	-83.8806	0.578575	0	-0.21964	0	-2.72466	0	0	0	0	-0.00273379	0	0.000694589	0	0	0
0.26	164.343	1399.7	-59.9816	0.534725	0	-0.219987	0	-4.02557	0	0	0	0	-0.00273379	0	0.000694561	0	0	0
0.27	219.756	1215.64	-37.3516	0.49071	0	-0.221055	0	-5.99017	0	0	0	0	-0.0027338	0	0.000694532	0	0	0
0.28	247.85	991.527	-13.8142	0.446895	0	-0.222447	0	-7.31084	0	0	0	0	-0.0027338	0	0.000694502	0	0	0
0.29	242.181	747.988	3.027	0.402566	0	-0.2235	0	-7.00587	0	0	0	0	-0.00273381	0	0.00069447	0	0	0
0.3	208.173	507.805	9.93927	0.354553	0	-0.223152	0	-5.43993	0	0	0	0	-0.00273382	0	0.000694438	0	0	0
0.31	159.906	299.933	10.0258	0.295753	0	-0.21901	0	-4.1909	0	0	0	0	-0.00273382	0	0.000694404	0	0	0
0.32	103.981	149.756	4.92752	0.213419	0	-0.202137	0	-4.51163	0	0	0	0	-0.00273383	0	0.000694369	0	0	0
0.33	48.4474	65.6804	0.637749	0.121155	0	-0.100728	0	-5.84812	0	0	0	0	-0.00273384	0	0.000694333	0	0	0
0.34	0	0	0	-0.00273384	0	0.000694292	0	0	0	0	0	0	-0.00273385	0	0.000694296	0	0	0
0.35	0	0	0	-0.00273385	0	0.000694253	0	0	0	0	0	0	-0.00273385	0	0.000694257	0	0	0
0.36	0	0	0	-0.00273386	0	0.000694213	0	0	0	0	0	0	-0.00273386	0	0.000694218	0	0	0
0.37	0	0	0	-0.00273387	0	0.000694172	0	0	0	0	0	0	-0.00273387	0	0.000694177	0	0	0
0.38	0	0	0	-0.00273387	0	0.00069413	0	0	0	0	0	0	-0.00273388	0	0.000694135	0	0	0
0.39	0	0	0	-0.00273388	0	0.000694087	0	0	0	0	0	0	-0.00273389	0	0.000694092	0	0	0
0.4	0	0	0	-0.00273389	0	0.000694042	0	0	0	0	0	0	-0.00273389	0	0.000694048	0	0	0
0.41	0	0	0	-0.0027339	0	0.000693997	0	0	0	-16.9342	54.6183	-7.29294	6.04056	0	1.72667	-0	0.815694	-0
0.42	0	0	0	-0.00273391	0	0.00069395	0	0	0	-29.6061	162.515	-16.0269	0.929835	0	-0.319789	0	-1.25402	0
0.43	0	0	0	-0.00273392	0	0.000693903	0	0	0	-33.6139	381.464	-16.0715	0.90559	0	-0.323602	0	-2.09169	0
0.44	0	0	0	-0.00273393	0	0.000693854	0	0	0	-44.266	677.097	-0.580879	0.893781	0	-0.325283	0	-1.88135	0
0.45	0	0	0	-0.00273394	0	0.000693804	0	0	0	-92.2769	927.076	22.6111	0.884783	0	-0.327535	0	-1.43546	0
0.46	0	0	0	-0.00273395	0	0.000693753	0	0	0	-166.483	1064.44	31.6134	0.872915	0	-0.330895	0	-1.19053	0
0.47	0	0	0	-0.00273396	0	0.000693701	0	0	0	-224.665	1169.99	21.444	0.852126	0	-0.334974	0	-1.14807	0
0.48	0	0	0	-0.00273397	0	0.000693647	0	0	0	-232.881	1316.14	30.9168	0.819923	0	-0.338671	0	-1.13685	0
0.49	0	0	0	-0.00273398	0	0.000693593	0	0	0	-195.869	1480.85	67.9104	0.780301	0	-0.341262	0	-0.987644	0
0.5	0	0	0	-0.00273399	0	0.000693538	0	0	0	-139.999	1608.6	89.7665	0.739468	0	-0.342849	0	-0.688727	0
0.51	0	0	0	-0.002734	0	0.000693482	0	0	0	-77.2343	1671.88	81.8008	0.700494	0	-0.34365	0	-0.534828	0
0.52	0	0	0	-0.00273401	0	0.000693424	0	0	0	-13.9426	1671.25	70.1258	0.662875	0	-0.343586	0	-0.932738	0
0.53	0	0	0	-0.00273402	0	0.000693366	0	0	0	46.6332	1610.22	64.4333	0.624418	0	-0.342502	0	-1.79129	0
0.54	0	0	0	-0.00273403	0	0.000693306	0	0	0	108.328	1485.12	48.4024	0.58293	0	-0.340429	0	-2.24666	0
0.55	0	0	0	-0.00273405	0	0.000693246	0	0	0	173.133	1298.07	18.2689	0.537644	0	-0.337589	0	-1.38161	0
0.56	0	0	0	-0.00273406	0	0.000693184	0	0	0	225.571	1072.72	-12.4929	0.490201	0	-0.334268	-0	0.730472	-0
0.57	0	0	0	-0.00273407	0	0.000693122	0	0	0	240.471	836.336	-28.8078	0.443814	0	-0.330764	-0	2.96469	-0
0.58	0	0	0	-0.00273408	0	0.000693058	0	0	0	219.054	604.679	-28.6833	0.40055	0	-0.327398	-0	4.14476	-0
0.59	0	0	0	-0.0027341	0	0.000692994	0	0	0	179.428	395.054	-23.3255	0.358089	0	-0.324475	-0	3.81946	-0
0.6	0	0	0	-0.00273411	0	0.000692929	0	0	0	130.277	222.542	-19.1284	0.305509	0	-0.321822	-0	2.13413	-0
0.61	0	0	0	-0.00273412	0	0.000692862	0	0	0	76.1375	101.495	-14.1569	0.214624	0	-0.313943	0	-0.41104	0
0.62	0	0	0	-0.00273413	0	0.000692795	0	0	0	0	0	0	-0.00273414	0	0.000692809	0	0	0
0.63	0	0	0	-0.00273415	0	0.000692727	0	0	0	0	0	0	-0.00273416	0	0.000692741	0	0	0
0.64	0	0	0	-0.00273416	0	0.000692658	0	0	0	0	0	0	-0.00273417	0	0.000692673	0	0	0
0.65	0	0	0	-0.00273418	0	0.000692588	0	0	0	0	0	0	-0.00273418	0	0.000692603	0	0	0
0.66	0	0	0	-0.00273419	0	0.000692517	0	0	0	0	0	0	-0.0027342	0	0.000692533	0	0	0
0.67	0	0	0	-0.0027342	0	0.000692445	0	0	0	0	0	0	-0.00273421	0	0.000692461	0	0	0
0.68	0	0	0	-0.00273422	0	0.000692373	0	0	0	0	0	0	-0.00273423	0	0.000692389	0	0	0
0.69	0	0	0	-0.00273423	0	0.000692299	0	0	0	0	0	0	-0.00273424	0	0.000692316	0	0	0
0.7	-43.705	118.909	-2.48858	0.953471	0	-0.23124	0	-0.205424	0	0	0	0	-0.00273426	0	0.000692242	0	0	0
0.71	-60.1542	302.769	-2.90396	0.910807	0	-0.250433	0	-0.261789	0	0	0	0	-0.00273427	0	0.000692168	0	0	0
0.72	-68.6393	602.614	1.58022	0.895454	0	-0.253484	-0	0.619287	-0	0	0	0	-0.00273429	0	0.000692092	0	0	0
0.73	-91.9887	911.102	13.1275	0.885267	0	-0.253838	-0	1.805	-0	0	0	0	-0.0027343	0	0.000692016	0	0	0
0.74	-150.459	1114.9	18.3243	0.874209	0	-0.253135	-0	2.43844	-0	0	0	0	-0.00273432	0	0.000691939	0	0	0
0.75	-212.782	1245.93	-6.02889	0.856834	0	-0.251771	-0	2.2101	-0	0	0	0	-0.00273433	0	0.000691861	0	0	0
0.76	-226.115	1369.71	-44.6991	0.829058	0	-0.249869	-0	1.36378	-0	0	0	0	-0.00273435	0	0.000691782	0	0	0
0.77	-186.694	1491.84	-61.2333	0.7914	0	-0.247614	-0	0.266265	-0	0	0	0	-0.00273437	0	0.000691703	0	0	0
0.78	-124.66	1585.65	-64.7867	0.748511	0	-0.245406	0	-0.862001	0	0	0	0	-0.00273438	0	0.000691622	0	0	0
0.79	-54.0541	1629.99	-80.6467	0.704665	0	-0.243663	0	-1.93975	0	0	0	0	-0.0027344	0	0.000691541	0	0	0
0.8	21.0588	1617.95	-95.0915	0.6612	0	-0.242618	0	-2.98787	0	0	0	0	-0.00273441	0	0.00069146	0	0	0
0.81	96.1102	1550.88	-87.8783	0.617601	0	-0.242352	0	-4.09707	0	0	0	0	-0.00273443	0	0.000691377	0	0	0
0.82	164.427	1429.91	-67.7533	0.573385	0	-0.242882	0	-5.2621	0	0	0	0	-0.00273445	0	0.000691294	0	0	0
0.83	216.605	1257.92	-46.9182	0.528932	0	-0.244086	0	-6.18335	0	0	0	0	-0.00273446	0	0.000691211	0	0	0
0.84	242.496	1044.84	-26.8429	0.485071	0	-0.245635	0	-6.32259	0	0	0	0	-0.00273448	0	0.000691126	0	0	0
0.85	236.816	804.497	-8.52199	0.441961	0	-0.247021	0	-5.34126	0	0	0	0	-0.0027345	0	0.000691041	0	0	0
